<?xml version="1.0" encoding="iso-8859-1"?>
<!-- Generator: Adobe Illustrator 16.0.0, SVG Export Plug-In . SVG Version: 6.00 Build 0)  -->
<!DOCTYPE svg PUBLIC "-//W3C//DTD SVG 1.1//EN" "http://www.w3.org/Graphics/SVG/1.1/DTD/svg11.dtd">
<svg version="1.1" id="Capa_1" xmlns="http://www.w3.org/2000/svg" xmlns:xlink="http://www.w3.org/1999/xlink" x="0px" y="0px"
	 width="370.609px" height="370.609px" viewBox="0 0 370.609 370.609" style="enable-background:new 0 0 370.609 370.609;"
	 xml:space="preserve">
<g>
	<path d="M263.837,126.396c0-22.348-18.183-40.529-40.53-40.529h-76.004c-22.347,0-40.529,18.182-40.529,40.529
		c0,5.163,4.189,9.353,9.353,9.353c0.743,0,1.452-0.106,2.137-0.268c-7.219,10.595-11.49,23.869-11.49,34.562v59.239v61.828v38.971
		c0,22.348,18.182,40.529,40.529,40.529h76.004c22.348,0,40.53-18.182,40.53-40.529V170.042c0-10.692-4.275-23.967-11.497-34.562
		c0.694,0.161,1.4,0.268,2.144,0.268C259.647,135.748,263.837,131.559,263.837,126.396z M245.131,330.08
		c0,12.033-9.792,21.824-21.824,21.824h-76.004c-12.035,0-21.824-9.791-21.824-21.824v-29.617h12.471v14.504
		c0,14.603,11.877,26.477,26.476,26.477h41.747c14.608,0,26.488-11.874,26.488-26.477V177.824h-94.711v42.104h-12.471v-49.886
		c0-13.855,11.497-34.294,21.824-34.294h76.004c10.327,0,21.824,20.438,21.824,34.294V330.08z M156.655,238.634h21.96
		c5.164,0,9.353-4.189,9.353-9.353c0-5.164-4.189-9.354-9.353-9.354h-21.96v-23.395h57.299v118.434c0,4.287-3.495,7.771-7.782,7.771
		h-41.747c-4.29,0-7.77-3.489-7.77-7.771v-14.504h21.96c5.164,0,9.353-4.189,9.353-9.354c0-5.163-4.189-9.353-9.353-9.353h-21.96
		V238.634z M137.949,281.757h-12.471v-43.123h12.471V281.757z M223.307,117.042h-76.004c-8.257,0-15.683,3.952-21.888,9.938
		c0.015-0.197,0.064-0.383,0.064-0.584c0-12.035,9.789-21.824,21.824-21.824h76.004c12.032,0,21.824,9.789,21.824,21.824
		c0,0.201,0.049,0.393,0.061,0.584C238.986,120.994,231.563,117.042,223.307,117.042z"/>
	<path d="M185.299,0C169.4,0,156.46,12.939,156.46,28.838v32.087H137.17c-5.164,0-9.353,4.189-9.353,9.353
		c0,5.164,4.189,9.354,9.353,9.354h96.27c5.163,0,9.353-4.189,9.353-9.354c0-5.163-4.189-9.353-9.353-9.353h-19.303V28.838
		C214.137,12.939,201.203,0,185.299,0z M175.166,60.925V28.838c0-5.587,4.546-10.132,10.133-10.132s10.132,4.545,10.132,10.132
		v32.087H175.166z"/>
</g>
<g>
</g>
<g>
</g>
<g>
</g>
<g>
</g>
<g>
</g>
<g>
</g>
<g>
</g>
<g>
</g>
<g>
</g>
<g>
</g>
<g>
</g>
<g>
</g>
<g>
</g>
<g>
</g>
<g>
</g>
</svg>
